<svg width="640" height="640" viewBox="0 0 640 640" fill="none" xmlns="http://www.w3.org/2000/svg">
<g clip-path="url(#clip0_7_296)">
<rect width="640" height="640" fill="white"/>
<path d="M293.365 64.6765C296.878 49.2571 316.052 43.822 327.134 55.1042L584.484 317.107C589.257 321.967 591.229 328.922 589.716 335.564L550.525 507.585C547.012 523.004 527.839 528.439 516.757 517.157L259.407 255.154C254.633 250.294 252.662 243.339 254.175 236.697L293.365 64.6765Z" fill="#080808"/>
<path d="M258.997 290.445C264.945 289.928 270.814 292.096 274.998 296.355L529.313 555.269C541.163 567.333 533.624 587.744 516.777 589.209L348.791 603.812C342.842 604.329 336.974 602.162 332.79 597.902L78.4746 338.989C66.6251 326.925 74.1644 306.513 91.0107 305.049L258.997 290.445Z" fill="#080808"/>
</g>
<defs>
<clipPath id="clip0_7_296">
<rect width="640" height="640" fill="white"/>
</clipPath>
</defs>
</svg>
