<svg width="640" height="640" viewBox="0 0 640 640" fill="none" xmlns="http://www.w3.org/2000/svg">
<path d="M320 60.5C420.792 60.5 502.5 142.208 502.5 243C502.5 301.968 473.6 360.202 437.643 411.212C401.529 462.443 357.075 508.056 323.808 541.778C321.38 544.239 318.041 545.585 314.586 545.496C311.131 545.407 307.867 543.89 305.569 541.308C273.474 505.226 231.602 458.972 197.854 408.124C164.209 357.433 137.5 300.546 137.5 243C137.5 142.208 219.208 60.5 320 60.5Z" fill="white"/>
<path d="M320 60.5C420.792 60.5 502.5 142.208 502.5 243C502.5 301.968 473.6 360.202 437.643 411.212C401.529 462.443 357.075 508.056 323.808 541.778C321.38 544.239 318.041 545.585 314.586 545.496C311.131 545.407 307.867 543.89 305.569 541.308C273.474 505.226 231.602 458.972 197.854 408.124C164.209 357.433 137.5 300.546 137.5 243C137.5 142.208 219.208 60.5 320 60.5Z" fill="url(#paint0_linear_9_314)"/>
<path d="M320 60.5C420.792 60.5 502.5 142.208 502.5 243C502.5 301.968 473.6 360.202 437.643 411.212C401.529 462.443 357.075 508.056 323.808 541.778C321.38 544.239 318.041 545.585 314.586 545.496C311.131 545.407 307.867 543.89 305.569 541.308C273.474 505.226 231.602 458.972 197.854 408.124C164.209 357.433 137.5 300.546 137.5 243C137.5 142.208 219.208 60.5 320 60.5Z" fill="url(#paint1_linear_9_314)" fill-opacity="0.59"/>
<path d="M320 60.5C420.792 60.5 502.5 142.208 502.5 243C502.5 301.968 473.6 360.202 437.643 411.212C401.529 462.443 357.075 508.056 323.808 541.778C321.38 544.239 318.041 545.585 314.586 545.496C311.131 545.407 307.867 543.89 305.569 541.308C273.474 505.226 231.602 458.972 197.854 408.124C164.209 357.433 137.5 300.546 137.5 243C137.5 142.208 219.208 60.5 320 60.5Z" stroke="#080808" stroke-width="25" stroke-linejoin="round"/>
<path d="M295.001 129.784C296.581 122.845 305.21 120.399 310.196 125.476L416.314 233.512C418.462 235.699 419.349 238.829 418.668 241.818L402.691 311.948C401.11 318.886 392.482 321.332 387.495 316.255L281.378 208.219C279.23 206.032 278.342 202.902 279.023 199.913L295.001 129.784Z" fill="#080808"/>
<path d="M280.639 222.691C283.316 222.458 285.956 223.434 287.839 225.35L392.591 331.996C397.923 337.425 394.531 346.61 386.95 347.269L318.679 353.204C316.002 353.437 313.361 352.462 311.478 350.545L206.726 243.899C201.394 238.47 204.787 229.285 212.368 228.626L280.639 222.691Z" fill="#080808"/>
<defs>
<linearGradient id="paint0_linear_9_314" x1="361" y1="100" x2="270.5" y2="486.5" gradientUnits="userSpaceOnUse">
<stop stop-color="white"/>
<stop offset="1" stop-color="#90C180"/>
</linearGradient>
<linearGradient id="paint1_linear_9_314" x1="244" y1="73" x2="560" y2="386.5" gradientUnits="userSpaceOnUse">
<stop stop-color="white"/>
<stop offset="1" stop-color="#45FFD7"/>
</linearGradient>
</defs>
</svg>
