<svg width="390" height="510" viewBox="0 0 390 510" fill="none" xmlns="http://www.w3.org/2000/svg">
<g clip-path="url(#clip0_9_314)">
<path d="M195 12.5C295.792 12.5 377.5 94.208 377.5 195C377.5 253.912 349.399 310.995 314.464 361.439C279.459 411.985 236.24 457.699 204.311 493.341C201.934 495.993 198.539 497.506 194.978 497.5C191.416 497.494 188.027 495.968 185.66 493.308C153.7 457.377 110.515 411.081 75.5215 360.306C40.6333 309.683 12.5 252.715 12.5 195C12.5 94.208 94.208 12.5 195 12.5Z" fill="white"/>
<path d="M195 12.5C295.792 12.5 377.5 94.208 377.5 195C377.5 253.912 349.399 310.995 314.464 361.439C279.459 411.985 236.24 457.699 204.311 493.341C201.934 495.993 198.539 497.506 194.978 497.5C191.416 497.494 188.027 495.968 185.66 493.308C153.7 457.377 110.515 411.081 75.5215 360.306C40.6333 309.683 12.5 252.715 12.5 195C12.5 94.208 94.208 12.5 195 12.5Z" fill="url(#paint0_linear_9_314)"/>
<path d="M195 12.5C295.792 12.5 377.5 94.208 377.5 195C377.5 253.912 349.399 310.995 314.464 361.439C279.459 411.985 236.24 457.699 204.311 493.341C201.934 495.993 198.539 497.506 194.978 497.5C191.416 497.494 188.027 495.968 185.66 493.308C153.7 457.377 110.515 411.081 75.5215 360.306C40.6333 309.683 12.5 252.715 12.5 195C12.5 94.208 94.208 12.5 195 12.5Z" fill="url(#paint1_linear_9_314)" fill-opacity="0.59"/>
<path d="M195 12.5C295.792 12.5 377.5 94.208 377.5 195C377.5 253.912 349.399 310.995 314.464 361.439C279.459 411.985 236.24 457.699 204.311 493.341C201.934 495.993 198.539 497.506 194.978 497.5C191.416 497.494 188.027 495.968 185.66 493.308C153.7 457.377 110.515 411.081 75.5215 360.306C40.6333 309.683 12.5 252.715 12.5 195C12.5 94.208 94.208 12.5 195 12.5Z" stroke="#080808" stroke-width="25" stroke-linejoin="round"/>
<path d="M170.001 81.7839C171.581 74.8452 180.21 72.3994 185.196 77.4764L291.314 185.512C293.462 187.699 294.349 190.829 293.668 193.818L277.691 263.948C276.11 270.886 267.482 273.332 262.495 268.255L156.378 160.219C154.23 158.032 153.342 154.902 154.023 151.913L170.001 81.7839Z" fill="#080808"/>
<path d="M155.639 174.691C158.316 174.458 160.956 175.434 162.839 177.35L267.591 283.996C272.923 289.425 269.531 298.61 261.95 299.269L193.679 305.204C191.002 305.437 188.361 304.462 186.478 302.545L81.7263 195.899C76.394 190.47 79.7867 181.285 87.3675 180.626L155.639 174.691Z" fill="#080808"/>
</g>
<defs>
<linearGradient id="paint0_linear_9_314" x1="236" y1="52" x2="145.5" y2="438.5" gradientUnits="userSpaceOnUse">
<stop stop-color="white"/>
<stop offset="1" stop-color="#90C180"/>
</linearGradient>
<linearGradient id="paint1_linear_9_314" x1="119" y1="25" x2="435" y2="338.5" gradientUnits="userSpaceOnUse">
<stop stop-color="white"/>
<stop offset="1" stop-color="#45FFD7"/>
</linearGradient>
<clipPath id="clip0_9_314">
<rect width="390" height="510" fill="white"/>
</clipPath>
</defs>
</svg>
